<svg width="16" height="16" viewBox="0 0 16 16" fill="none" xmlns="http://www.w3.org/2000/svg">
<path fill-rule="evenodd" clip-rule="evenodd" d="M8 3C3.88946 3 1.20134 6.25969 0.318453 7.51515C0.111565 7.80934 0.111565 8.19066 0.318454 8.48485C1.20134 9.74031 3.88947 13 8 13C12.1105 13 14.7987 9.74031 15.6815 8.48485C15.8884 8.19066 15.8884 7.80934 15.6815 7.51515C14.7987 6.25969 12.1105 3 8 3ZM11 8C11 9.65685 9.65685 11 8 11C6.34315 11 5 9.65685 5 8C5 6.34315 6.34315 5 8 5C9.65685 5 11 6.34315 11 8Z" fill="white"/>
<path d="M8 10C9.10457 10 10 9.10457 10 8C10 6.89543 9.10457 6 8 6C6.89543 6 6 6.89543 6 8C6 9.10457 6.89543 10 8 10Z" fill="white"/>
</svg>
