<svg width="16" height="16" viewBox="0 0 16 16" fill="none" xmlns="http://www.w3.org/2000/svg">
<path d="M14 6C14 9.31371 11.3137 12 8 12C4.68629 12 2 9.31371 2 6C2 2.68629 4.68629 0 8 0C11.3137 0 14 2.68629 14 6ZM4.4 6C4.4 7.98823 6.01177 9.6 8 9.6C9.98823 9.6 11.6 7.98823 11.6 6C11.6 4.01177 9.98823 2.4 8 2.4C6.01177 2.4 4.4 4.01177 4.4 6Z" fill="white"/>
<path d="M11 6C11 7.65685 9.65685 9 8 9C6.34315 9 5 7.65685 5 6C5 4.34315 6.34315 3 8 3C9.65685 3 11 4.34315 11 6ZM7.25 6C7.25 6.41421 7.58579 6.75 8 6.75C8.41421 6.75 8.75 6.41421 8.75 6C8.75 5.58579 8.41421 5.25 8 5.25C7.58579 5.25 7.25 5.58579 7.25 6Z" fill="white"/>
<rect x="7" y="11" width="2" height="5" fill="white"/>
<rect x="4" y="14" width="8" height="2" rx="1" fill="white"/>
</svg>
