<svg width="16" height="16" viewBox="0 0 16 16" fill="none" xmlns="http://www.w3.org/2000/svg">
<path fill-rule="evenodd" clip-rule="evenodd" d="M15.574 14.5444C15.8468 14.2527 16 13.857 16 13.4444V4.88889C16 4.47633 15.8468 4.08067 15.574 3.78894C15.3012 3.49722 14.9312 3.33333 14.5455 3.33333H13.0112C12.1561 3.33333 11.3614 2.89231 10.9091 2.16667C10.4567 1.44102 9.66212 1 8.80703 1H7.19297C6.33788 1 5.54326 1.44102 5.09091 2.16667C4.63856 2.89231 3.84394 3.33333 2.98885 3.33333H1.45455C1.06878 3.33333 0.698807 3.49722 0.426027 3.78894C0.153246 4.08067 0 4.47633 0 4.88889V13.4444C0 13.857 0.153246 14.2527 0.426027 14.5444C0.698807 14.8361 1.06878 15 1.45455 15H14.5455C14.9312 15 15.3012 14.8361 15.574 14.5444ZM11 9C11 10.6569 9.65685 12 8 12C6.34315 12 5 10.6569 5 9C5 7.34315 6.34315 6 8 6C9.65685 6 11 7.34315 11 9ZM8 13C10.2091 13 12 11.2091 12 9C12 6.79086 10.2091 5 8 5C5.79086 5 4 6.79086 4 9C4 11.2091 5.79086 13 8 13Z" fill="white"/>
</svg>
