<svg width="16" height="16" viewBox="0 0 16 16" fill="none" xmlns="http://www.w3.org/2000/svg">
<path fill-rule="evenodd" clip-rule="evenodd" d="M4.88506 2C2.18711 2 0 4.18711 0 6.88505C0 9.583 2.18711 11.7701 4.88505 11.7701H9.01851C9.65621 11.7701 10.2773 11.9733 10.7917 12.3502L12.4536 13.568C13.926 14.6469 16 13.5954 16 11.7701V6C16 3.79086 14.2091 2 12 2H4.88506ZM4.90804 2.97701C2.74969 2.97701 1 4.7267 1 6.88505C1 9.04341 2.74969 10.7931 4.90804 10.7931H13C14.1046 10.7931 15 9.89767 15 8.7931V5.97701C15 4.32016 13.6569 2.97701 12 2.97701H4.90804Z" fill="white"/>
</svg>
