<svg width="16" height="16" viewBox="0 0 16 16" fill="none" xmlns="http://www.w3.org/2000/svg">
<path fill-rule="evenodd" clip-rule="evenodd" d="M2 5.38095C0.895431 5.38095 0 6.27638 0 7.38095V11C0 12.1046 0.895431 13 2 13H14C15.1046 13 16 12.1046 16 11V7.38095C16 6.27638 15.1046 5.38095 14 5.38095H10.5C9.94772 5.38095 9.5 4.93324 9.5 4.38095V4C9.5 3.44772 9.05229 3 8.5 3H7C6.44772 3 6 3.44772 6 4V4.38095C6 4.93324 5.55228 5.38095 5 5.38095H2ZM2 6.33333C1.44772 6.33333 1 6.78105 1 7.33333V11.0476C1 11.5999 1.44772 12.0476 2 12.0476H14C14.5523 12.0476 15 11.5999 15 11.0476V7.33333C15 6.78105 14.5523 6.33333 14 6.33333H2Z" fill="white"/>
</svg>
