<svg width="16" height="16" viewBox="0 0 16 16" fill="none" xmlns="http://www.w3.org/2000/svg">
<g clip-path="url(#clip0_1_88)">
<path fill-rule="evenodd" clip-rule="evenodd" d="M9.83841 4.3C9.8445 4.29989 9.85059 4.29989 9.85666 4.3H13.9433C12.856 2.55706 11.0232 1.3271 8.89118 1.05619L7.018 4.3H9.83841ZM10.7141 5.3H14.4603C14.808 6.13086 15 7.043 15 8C15 9.19182 14.7021 10.3141 14.1768 11.2964L12.1354 7.7613C12.1311 7.7534 12.1266 7.7456 12.1219 7.73792L10.7141 5.3ZM11.6959 8.99995L13.5684 12.2425C12.3334 13.8609 10.4089 14.9249 8.23333 14.9962L11.6959 8.99995ZM8.982 11.7L7.10882 14.9438C4.97677 14.6729 3.14403 13.4429 2.05667 11.7H6.14333C6.14942 11.7001 6.15551 11.7001 6.1616 11.7H8.982ZM5.28589 10.7H1.5397C1.19205 9.86914 1 8.957 1 8C1 6.80818 1.29785 5.68592 1.82318 4.70361L3.8646 8.23874C3.86887 8.24662 3.87335 8.25438 3.87805 8.26204L5.28589 10.7ZM4.30406 7.00005L2.43163 3.75755C3.66657 2.13912 5.59105 1.07507 7.76667 1.00382L4.30406 7.00005ZM6.44065 10.7L4.88144 7.9999L6.44054 5.3H9.55936L11.1186 8.0001L9.55947 10.7H6.44065Z" fill="white"/>
</g>
<defs>
<clipPath id="clip0_1_88">
<rect width="16" height="16" fill="white"/>
</clipPath>
</defs>
</svg>
